<svg width="24" height="24" viewBox="0 0 24 24" fill="none" xmlns="http://www.w3.org/2000/svg">
<path d="M12 1.5C9.15056 1.5 8.79225 1.51313 7.67269 1.563C6.55312 1.6155 5.79056 1.79137 5.1225 2.05125C4.42175 2.31483 3.78702 2.72827 3.26269 3.26269C2.7286 3.78729 2.3152 4.42194 2.05125 5.1225C1.79137 5.78925 1.61419 6.55312 1.563 7.66875C1.51313 8.79094 1.5 9.14794 1.5 12.0013C1.5 14.8521 1.51313 15.2091 1.563 16.3286C1.6155 17.4469 1.79137 18.2094 2.05125 18.8775C2.32031 19.5679 2.67863 20.1532 3.26269 20.7373C3.84544 21.3214 4.43081 21.681 5.12119 21.9487C5.79056 22.2086 6.55181 22.3858 7.67006 22.437C8.79094 22.4869 9.14794 22.5 12 22.5C14.8521 22.5 15.2078 22.4869 16.3286 22.437C17.4456 22.3845 18.2108 22.2086 18.8788 21.9487C19.5791 21.685 20.2134 21.2716 20.7373 20.7373C21.3214 20.1532 21.6797 19.5679 21.9487 18.8775C22.2073 18.2094 22.3845 17.4469 22.437 16.3286C22.4869 15.2091 22.5 14.8521 22.5 12C22.5 9.14794 22.4869 8.79094 22.437 7.67006C22.3845 6.55313 22.2073 5.78925 21.9487 5.1225C21.6848 4.42192 21.2714 3.78726 20.7373 3.26269C20.2131 2.72807 19.5784 2.3146 18.8775 2.05125C18.2081 1.79137 17.4443 1.61419 16.3273 1.563C15.2064 1.51313 14.8507 1.5 11.9974 1.5H12.0013H12ZM11.0589 3.39263H12.0013C14.8048 3.39263 15.1369 3.40181 16.2433 3.453C17.2671 3.49894 17.8236 3.67088 18.1937 3.81394C18.6833 4.00425 19.0337 4.23263 19.4012 4.60013C19.7687 4.96762 19.9958 5.31675 20.1861 5.80763C20.3304 6.17644 20.5011 6.73294 20.547 7.75669C20.5982 8.86313 20.6087 9.19519 20.6087 11.9974C20.6087 14.7996 20.5982 15.1329 20.547 16.2394C20.5011 17.2631 20.3291 17.8183 20.1861 18.1884C20.0177 18.6443 19.749 19.0566 19.3999 19.3946C19.0324 19.7621 18.6833 19.9892 18.1924 20.1795C17.8249 20.3239 17.2684 20.4945 16.2433 20.5417C15.1369 20.5916 14.8048 20.6034 12.0013 20.6034C9.19781 20.6034 8.86444 20.5916 7.758 20.5417C6.73425 20.4945 6.17906 20.3239 5.80894 20.1795C5.35284 20.0114 4.94023 19.7432 4.60144 19.3946C4.25199 19.056 3.98289 18.6434 3.81394 18.1871C3.67088 17.8183 3.49894 17.2618 3.453 16.2381C3.40313 15.1316 3.39263 14.7996 3.39263 11.9948C3.39263 9.19125 3.40313 8.8605 3.453 7.75406C3.50025 6.73031 3.67088 6.17381 3.81525 5.80369C4.00556 5.31413 4.23394 4.96369 4.60144 4.59619C4.96894 4.22869 5.31806 4.00163 5.80894 3.81131C6.17906 3.66694 6.73425 3.49631 7.758 3.44906C8.72662 3.40444 9.102 3.39131 11.0589 3.39V3.39263ZM17.6057 5.13562C17.4402 5.13562 17.2764 5.16822 17.1235 5.23154C16.9706 5.29486 16.8317 5.38767 16.7147 5.50467C16.5977 5.62167 16.5049 5.76057 16.4416 5.91344C16.3783 6.06631 16.3457 6.23016 16.3457 6.39563C16.3457 6.56109 16.3783 6.72494 16.4416 6.87781C16.5049 7.03068 16.5977 7.16958 16.7147 7.28658C16.8317 7.40358 16.9706 7.49639 17.1235 7.55971C17.2764 7.62303 17.4402 7.65562 17.6057 7.65562C17.9399 7.65562 18.2603 7.52288 18.4966 7.28658C18.7329 7.05028 18.8657 6.7298 18.8657 6.39563C18.8657 6.06145 18.7329 5.74097 18.4966 5.50467C18.2603 5.26837 17.9399 5.13562 17.6057 5.13562ZM12.0013 6.60825C11.2861 6.59709 10.5758 6.72832 9.91178 6.99431C9.24777 7.2603 8.6433 7.65572 8.13357 8.15756C7.62384 8.65939 7.21904 9.25762 6.94273 9.9174C6.66642 10.5772 6.52412 11.2853 6.52412 12.0007C6.52412 12.716 6.66642 13.4241 6.94273 14.0839C7.21904 14.7437 7.62384 15.3419 8.13357 15.8438C8.6433 16.3456 9.24777 16.741 9.91178 17.007C10.5758 17.273 11.2861 17.4042 12.0013 17.3931C13.4169 17.371 14.767 16.7931 15.7603 15.7843C16.7535 14.7754 17.3102 13.4164 17.3102 12.0007C17.3102 10.5849 16.7535 9.22592 15.7603 8.21705C14.767 7.20818 13.4169 6.63034 12.0013 6.60825ZM12.0013 8.49956C12.9297 8.49956 13.82 8.86836 14.4765 9.52482C15.133 10.1813 15.5017 11.0716 15.5017 12C15.5017 12.9284 15.133 13.8187 14.4765 14.4752C13.82 15.1316 12.9297 15.5004 12.0013 15.5004C11.0729 15.5004 10.1826 15.1316 9.52613 14.4752C8.86967 13.8187 8.50087 12.9284 8.50087 12C8.50087 11.0716 8.86967 10.1813 9.52613 9.52482C10.1826 8.86836 11.0729 8.49956 12.0013 8.49956Z" fill="white"/>
</svg>
