<svg width="252" height="56" viewBox="0 0 252 56" fill="none" xmlns="http://www.w3.org/2000/svg">
<path d="M38.9857 53.6848C38.8444 53.2382 38.7709 52.2941 38.7709 50.8525V14.3062C38.7709 13.1699 38.9574 12.3982 39.3362 11.9912C39.7122 11.5841 40.6308 11.341 42.0951 11.2591V10.8011H30.271V11.2591H30.6978C31.6928 11.2591 32.425 11.5078 32.8914 12.0053C33.3578 12.5028 33.5924 14.0829 33.5924 16.7457V47.1325C29.8385 51.4998 25.5363 53.6848 20.6857 53.6848C17.6018 53.6848 14.8514 52.5824 12.4374 50.3776C10.0234 48.1728 8.81645 44.4924 8.81645 39.3309V4.57677C8.81645 3.09276 9.0765 2.1543 9.59378 1.75856C10.1111 1.36282 11.0015 1.16495 12.2593 1.16495V0.707031H0.342041V1.16495C1.76386 1.16495 2.66841 1.38261 3.05566 1.82075C3.44009 2.25888 3.63513 3.2878 3.63513 4.91314V41.889C3.63513 46.2987 4.93823 49.7529 7.54727 52.2517C10.1563 54.7505 13.6812 55.9999 18.1276 55.9999C24.1145 55.9999 29.2704 53.5915 33.5924 48.7777V55.6946H42.0951V55.2367C41.0379 55.2367 40.2916 55.0897 39.8563 54.7957C39.4182 54.5017 39.127 54.1314 38.9857 53.6848Z" fill="white"/>
<path d="M56.4773 6.9851C55.3636 5.19864 53.5912 3.70615 51.1603 2.50763C48.7293 1.30911 44.8285 0.707031 39.4662 0.707031H17.9241V1.24693C19.4561 1.24693 20.4596 1.55221 20.943 2.16277C21.4207 2.77617 21.6609 4.01425 21.6609 5.87987V49.6822C21.6609 50.1825 21.5988 50.6292 21.4801 51.0192C23.7301 50.8836 25.819 50.1684 27.792 48.854C27.7779 48.5205 27.7722 48.1615 27.7722 47.7799V2.5048H37.9964C41.7813 2.5048 44.5967 3.03339 46.4425 4.08492C48.2884 5.13927 49.7187 6.677 50.7363 8.70373C51.7539 10.7276 52.2655 13.0427 52.2655 15.6574C52.2655 19.0098 51.2168 21.715 49.1222 23.7785C47.1238 25.7402 44.56 26.7663 41.4223 26.8567V27.4079C46.4934 27.4334 50.5271 26.3564 53.5206 24.1685C56.6101 21.9128 58.1563 18.5434 58.1563 14.0575C58.1478 11.1319 57.591 8.7744 56.4773 6.9851Z" fill="white"/>
<path d="M88.394 28.9329H84.6798V25.9112C82.7915 28.0143 80.5387 29.0658 77.924 29.0658C75.982 29.0658 74.4415 28.5203 73.3023 27.4291C72.1632 26.338 71.5922 24.8286 71.5922 22.9036V11.1616C71.5922 10.4521 71.5074 9.99979 71.3406 9.8104C71.171 9.61819 70.7781 9.5249 70.1562 9.5249V9.32422H75.3602V9.5249C74.809 9.5249 74.4217 9.61254 74.1956 9.78497C73.9694 9.9574 73.8564 10.3701 73.8564 11.0174V21.7871C73.8564 24.0428 74.385 25.6512 75.4393 26.6122C76.4937 27.5761 77.695 28.0567 79.0434 28.0567C81.1634 28.0567 83.0403 27.1041 84.6798 25.1961V11.9219C84.6798 10.7602 84.578 10.0705 84.3745 9.85281C84.171 9.63515 83.8515 9.52773 83.4162 9.52773H83.2297V9.32703H88.394V9.52773C87.7552 9.56448 87.3538 9.66907 87.1899 9.84715C87.0259 10.0252 86.9439 10.3616 86.9439 10.8591V26.8242C86.9439 27.4546 86.975 27.8673 87.0372 28.0623C87.0994 28.2574 87.2266 28.4185 87.416 28.5485C87.6054 28.6785 87.9333 28.7407 88.394 28.7407V28.9329Z" fill="white"/>
<path d="M109.385 9.32129H113.181V9.52197C112.605 9.53893 112.203 9.66049 111.983 9.88946C111.759 10.1156 111.649 10.5933 111.649 11.3198V29.1731L96.0064 12.5154V27.0163C96.0064 27.4771 96.0431 27.8191 96.1138 28.0396C96.1844 28.2601 96.2862 28.4127 96.4191 28.4919C96.5519 28.571 96.8855 28.653 97.4169 28.7321V28.9328H93.6489V28.7321C94.3245 28.7321 94.7428 28.6134 94.9068 28.3732C95.0707 28.1329 95.1527 27.5619 95.1527 26.6574V13.3917C95.1527 12.2299 94.9916 11.2802 94.6665 10.5452C94.3414 9.81029 93.5952 9.46827 92.4221 9.52197V9.32129H96.1109L110.81 24.9727V11.1332C110.81 10.3869 110.677 9.93184 110.411 9.76789C110.145 9.60395 109.803 9.52197 109.385 9.52197V9.32129Z" fill="white"/>
<path d="M117.158 28.9329V28.7322C117.772 28.7322 118.168 28.6163 118.349 28.3873C118.529 28.1583 118.623 27.7626 118.623 27.2029V11.1586C118.623 10.5905 118.552 10.1806 118.411 9.92902C118.269 9.67744 117.843 9.54176 117.133 9.52197V9.32129H122.394V9.52197C121.905 9.52197 121.562 9.58417 121.367 9.70854C121.172 9.83292 121.042 9.97991 120.983 10.1495C120.921 10.3191 120.89 10.7007 120.89 11.2943V25.0603C120.89 26.2418 121.172 27.0729 121.741 27.5563C122.309 28.0396 123.278 28.2827 124.652 28.2827H127.046C128.197 28.2827 129.042 28 129.579 27.4319C130.116 26.8637 130.416 25.7952 130.478 24.2236H130.676V28.9357H117.158V28.9329Z" fill="white"/>
<path d="M135.396 9.54742V9.32129H147.723V12.0236H147.523C147.257 11.0201 147.031 10.4293 146.85 10.2541C146.669 10.076 146.222 9.98838 145.513 9.98838H139.043V18.7879H145.046C145.64 18.7879 146.019 18.7313 146.177 18.6211C146.338 18.5108 146.42 18.3469 146.429 18.1349H146.629V19.9864H146.429C146.384 19.7291 146.279 19.5567 146.115 19.4663C145.951 19.3786 145.646 19.3334 145.202 19.3334H139.037V25.391C139.037 26.3069 139.122 26.9655 139.289 27.3669C139.458 27.7711 139.727 28.0226 140.094 28.1272C140.462 28.229 141.018 28.2799 141.762 28.2799H145.219C146.318 28.2799 147.02 28.2431 147.325 28.1668C147.63 28.0933 147.89 27.9407 148.102 27.7174C148.314 27.4941 148.478 27.0022 148.594 26.2418H148.795V28.93H135.388V28.7293C135.84 28.7039 136.185 28.6163 136.419 28.4693C136.654 28.3223 136.773 27.9435 136.773 27.3329V11.5007C136.773 10.7827 136.711 10.2767 136.586 9.98272C136.47 9.6944 136.069 9.54742 135.396 9.54742Z" fill="white"/>
<path d="M163.262 19.9044H157.507L154.539 27.3075C154.335 27.839 154.233 28.1697 154.233 28.2912C154.233 28.5852 154.451 28.7294 154.886 28.7294V28.9301H151.972V28.7294C152.362 28.7294 152.69 28.6333 152.956 28.4439C153.221 28.2516 153.515 27.757 153.835 26.9599L160.944 9.02734H161.297L168.29 26.3465C168.29 26.4369 168.468 26.8553 168.827 27.6072C169.186 28.3591 169.732 28.7322 170.467 28.7322V28.9329H165.888V28.7322C166.306 28.7322 166.512 28.5682 166.512 28.2403C166.512 28.017 166.411 27.6637 166.207 27.1747C166.173 27.1379 166.139 27.0814 166.114 27.0023C166.097 26.9146 166.083 26.8694 166.074 26.8694L163.262 19.9044ZM157.693 19.3589H162.996L160.347 12.6766L157.693 19.3589Z" fill="white"/>
<path d="M183.784 9.57572L184.716 12.0265L184.555 12.0519C184.555 12.0434 184.309 11.7806 183.817 11.2661C183.326 10.7516 182.76 10.3531 182.127 10.0732C181.491 9.79338 180.776 9.65488 179.976 9.65488C178.636 9.65488 177.573 10.0393 176.787 10.8053C176.002 11.5714 175.609 12.4985 175.609 13.5812C175.609 14.2991 175.793 14.9266 176.16 15.4637C176.527 16.0008 177.296 16.5011 178.469 16.9675C180.482 17.6459 181.859 18.1575 182.602 18.4967C183.343 18.8388 184.058 19.4154 184.747 20.2323C185.437 21.0493 185.782 22.0951 185.782 23.37C185.782 23.9014 185.72 24.4102 185.595 24.8935C185.471 25.3769 185.27 25.8433 184.996 26.2899C184.722 26.7365 184.391 27.1464 184.004 27.5139C183.617 27.8814 183.227 28.1612 182.825 28.3534C182.427 28.5428 181.796 28.687 180.934 28.7859C180.072 28.882 179.504 28.9329 179.23 28.9329H173.998V23.2343H174.198C174.215 25.1253 174.659 26.4426 175.53 27.1888C176.4 27.9351 177.754 28.3082 179.592 28.3082C181.259 28.3082 182.528 27.9124 183.393 27.1238C184.258 26.3352 184.691 25.3854 184.691 24.2745C184.691 23.5989 184.541 23.0251 184.239 22.5502C183.936 22.0753 183.515 21.657 182.972 21.298C182.43 20.939 181.406 20.5009 179.9 19.9808C178.402 19.455 177.347 18.9943 176.739 18.5985C176.132 18.2028 175.623 17.6092 175.213 16.8149C174.803 16.0206 174.6 15.2121 174.6 14.3867C174.6 12.8716 175.12 11.5996 176.163 10.5707C177.206 9.54181 178.574 9.02734 180.27 9.02734C180.926 9.02734 181.638 9.10368 182.401 9.25349C183.165 9.40331 183.591 9.50223 183.679 9.54746C183.713 9.56725 183.747 9.57572 183.784 9.57572Z" fill="white"/>
<path d="M204.562 19.147H193.793V26.6857C193.793 27.3952 193.827 27.8475 193.892 28.0425C193.959 28.2376 194.084 28.4015 194.265 28.5344C194.446 28.6672 194.765 28.7322 195.217 28.7322V28.9329H190.146V28.7322C191.068 28.7944 191.531 28.3478 191.531 27.3896V11.6251C191.531 10.7291 191.458 10.1609 191.311 9.92348C191.164 9.68321 190.777 9.55034 190.146 9.5249V9.32422H195.217V9.5249C194.658 9.56165 194.282 9.66624 194.087 9.84432C193.892 10.0224 193.793 10.387 193.793 10.9354V18.6042H204.562V11.5884C204.562 10.7884 204.495 10.2457 204.356 9.95739C204.217 9.66907 203.836 9.5249 203.206 9.5249V9.32422H208.212V9.5249C207.816 9.5249 207.522 9.57013 207.33 9.66341C207.135 9.75669 207.005 9.90086 206.934 10.0959C206.863 10.2909 206.829 10.7884 206.829 11.5856V26.632C206.829 27.4037 206.863 27.8842 206.934 28.0765C207.005 28.2658 207.126 28.4241 207.304 28.5485C207.479 28.6729 207.785 28.7351 208.214 28.7351V28.9358H203.208V28.7351C203.748 28.7351 204.11 28.6248 204.294 28.4015C204.475 28.181 204.568 27.5818 204.568 26.6066V19.147H204.562Z" fill="white"/>
<path d="M213.079 9.54742V9.32129H225.407V12.0236H225.206C224.94 11.0201 224.714 10.4293 224.533 10.2541C224.352 10.076 223.906 9.98838 223.196 9.98838H216.726V18.7879H222.73C223.323 18.7879 223.702 18.7313 223.86 18.6211C224.021 18.5108 224.103 18.3469 224.112 18.1349H224.313V19.9864H224.112C224.067 19.7291 223.962 19.5567 223.798 19.4663C223.634 19.3786 223.329 19.3334 222.885 19.3334H216.72V25.391C216.72 26.3069 216.805 26.9655 216.972 27.3669C217.141 27.7711 217.41 28.0226 217.777 28.1272C218.145 28.229 218.702 28.2799 219.445 28.2799H222.902C224.002 28.2799 224.703 28.2431 225.008 28.1668C225.313 28.0933 225.573 27.9407 225.785 27.7174C225.997 27.4941 226.161 27.0022 226.277 26.2418H226.486V28.93H213.079V28.7293C213.532 28.7039 213.876 28.6163 214.111 28.4693C214.346 28.3223 214.464 27.9435 214.464 27.3329V11.5007C214.464 10.7827 214.402 10.2767 214.278 9.98272C214.153 9.6944 213.755 9.54742 213.079 9.54742Z" fill="white"/>
<path d="M230.557 9.52197V9.32129H239.557C241.846 9.32129 243.656 9.50219 244.981 9.86118C246.31 10.2202 247.466 10.7855 248.45 11.56C249.433 12.3345 250.216 13.3182 250.793 14.5224C251.37 15.7237 251.658 17.0664 251.658 18.5504C251.658 19.9807 251.358 21.3828 250.759 22.765C250.16 24.1444 249.346 25.3345 248.317 26.3323C247.288 27.3301 246.202 28.0142 245.06 28.3816C243.921 28.7491 242.155 28.9328 239.769 28.9328H230.557V28.7321H230.797C231.277 28.7321 231.591 28.5399 231.741 28.1527C231.891 27.7654 231.967 27.0672 231.967 26.0581V11.7833C231.967 10.7205 231.877 10.076 231.693 9.85554C231.512 9.63223 231.133 9.52197 230.557 9.52197ZM237.239 9.73397H234.231V24.95C234.231 25.9083 234.392 26.6206 234.718 27.087C235.043 27.5534 235.594 27.8898 236.374 28.099C237.154 28.3081 238.206 28.4127 239.529 28.4127C243.203 28.4127 245.784 27.4686 247.271 25.5832C248.758 23.6978 249.501 21.64 249.501 19.4126C249.501 16.7951 248.483 14.5252 246.445 12.6087C244.41 10.6922 241.34 9.73397 237.239 9.73397Z" fill="white"/>
<path d="M120.256 37.9954V37.8965H123.012C123.993 37.8965 124.706 38.0067 125.149 38.2244C125.593 38.442 125.918 38.7162 126.119 39.0413C126.322 39.3692 126.424 39.7988 126.424 40.3331C126.424 41.1528 126.142 41.7662 125.579 42.1789C125.014 42.5916 124.25 42.7867 123.284 42.7697V42.6708C123.897 42.6708 124.395 42.4842 124.776 42.1054C125.158 41.7267 125.35 41.2348 125.35 40.6214C125.35 40.1437 125.257 39.7225 125.07 39.3522C124.884 38.9819 124.624 38.7021 124.287 38.5099C123.951 38.3177 123.436 38.2216 122.747 38.2216H122.057V46.4896C122.057 46.9589 122.111 47.2359 122.215 47.3263C122.32 47.4168 122.521 47.462 122.812 47.462V47.5609H120.259V47.462C120.714 47.462 120.94 47.2557 120.94 46.8401V38.8406C120.94 38.5014 120.898 38.2724 120.81 38.1622C120.72 38.052 120.536 37.9954 120.256 37.9954Z" fill="white"/>
<path d="M129.163 47.5608V47.4619C129.466 47.4619 129.661 47.4054 129.751 47.2923C129.842 47.1792 129.887 46.9842 129.887 46.71V38.8009C129.887 38.5211 129.853 38.3204 129.782 38.1932C129.712 38.0688 129.502 38.001 129.152 37.9925V37.8936H131.744V37.9925C131.504 37.9925 131.334 38.0236 131.238 38.083C131.142 38.1451 131.077 38.2158 131.049 38.3006C131.017 38.3854 131.003 38.572 131.003 38.8659V45.65C131.003 46.2323 131.142 46.6422 131.422 46.8796C131.702 47.117 132.179 47.2358 132.858 47.2358H134.036C134.605 47.2358 135.02 47.0973 135.286 46.8174C135.549 46.5376 135.698 46.009 135.73 45.2373H135.828V47.5608H129.163Z" fill="white"/>
<path d="M144.066 43.1118H141.23L139.766 46.7611C139.664 47.024 139.616 47.1851 139.616 47.2473C139.616 47.3915 139.724 47.465 139.939 47.465V47.5639H138.503V47.465C138.695 47.465 138.856 47.4197 138.989 47.3236C139.119 47.2303 139.263 46.9844 139.421 46.5915L142.924 37.7524H143.096L146.542 46.289C146.542 46.3343 146.629 46.5406 146.807 46.9109C146.983 47.2812 147.254 47.465 147.616 47.465V47.5639H145.357V47.465C145.564 47.465 145.666 47.383 145.666 47.2218C145.666 47.1116 145.615 46.9364 145.516 46.6961C145.499 46.6791 145.485 46.6509 145.47 46.6113C145.462 46.5661 145.456 46.5463 145.451 46.5463L144.066 43.1118ZM141.321 42.8433H143.936L142.63 39.5502L141.321 42.8433Z" fill="white"/>
<path d="M156.777 37.5629L156.319 38.7303H156.22C156.237 38.6596 156.246 38.5664 156.246 38.4476C156.246 38.3459 156.209 38.2837 156.138 38.2526C156.068 38.2243 155.952 38.2102 155.793 38.2102H153.275V46.4783C153.275 46.8203 153.303 47.0521 153.357 47.1765C153.411 47.3008 153.487 47.38 153.58 47.4139C153.673 47.445 153.826 47.462 154.035 47.462V47.5609H151.418V47.462C151.746 47.4393 151.952 47.3772 152.034 47.2726C152.116 47.168 152.158 46.9503 152.158 46.6168V38.2102H149.741C149.498 38.2102 149.337 38.2243 149.264 38.2526C149.19 38.2809 149.154 38.3515 149.154 38.4646C149.154 38.5211 149.17 38.6088 149.207 38.7275H149.108L148.65 37.5601H148.749C148.828 37.7184 148.905 37.8116 148.981 37.8456C149.057 37.8767 149.221 37.8936 149.476 37.8936H155.89C156.144 37.8936 156.325 37.8767 156.435 37.8456C156.545 37.8116 156.627 37.7184 156.681 37.5601H156.777V37.5629Z" fill="white"/>
<path d="M161.953 37.8965V37.9954C161.826 37.9813 161.684 38.0011 161.529 38.0548C161.373 38.1085 161.28 38.1848 161.252 38.2837C161.224 38.3855 161.209 38.623 161.209 38.9989V46.4161C161.209 46.8175 161.226 47.0634 161.257 47.1539C161.289 47.2443 161.354 47.3178 161.447 47.3772C161.54 47.4366 161.71 47.4648 161.95 47.4648V47.5638H159.372V47.4648C159.697 47.4648 159.898 47.4026 159.977 47.2783C160.056 47.1539 160.096 46.8712 160.096 46.4303V39.0865C160.096 38.6286 160.05 38.3261 159.966 38.1848C159.878 38.0435 159.68 37.9813 159.375 37.9983V37.8993H161.953V37.8965Z" fill="white"/>
<path d="M173.008 37.8965H174.877V37.9954C174.591 38.0039 174.396 38.0633 174.286 38.1763C174.176 38.2894 174.122 38.524 174.122 38.8802V47.6797L166.413 39.471V46.6168C166.413 46.843 166.43 47.0126 166.467 47.1228C166.501 47.233 166.552 47.3065 166.617 47.3461C166.682 47.3857 166.846 47.4253 167.109 47.4648V47.5638H165.252V47.4648C165.585 47.4648 165.792 47.4055 165.871 47.2867C165.953 47.168 165.992 46.8882 165.992 46.4416V39.9034C165.992 39.3325 165.913 38.8632 165.752 38.5014C165.591 38.1396 165.223 37.97 164.647 37.9954V37.8965H166.464L173.709 45.6105V38.7897C173.709 38.4223 173.644 38.1989 173.511 38.117C173.378 38.035 173.212 37.9954 173.005 37.9954V37.8965H173.008Z" fill="white"/>
<path d="M187.006 47.5609H185.174V46.0713C184.244 47.1087 183.133 47.626 181.844 47.626C180.886 47.626 180.129 47.3574 179.566 46.8203C179.003 46.2833 178.724 45.5398 178.724 44.5901V38.8039C178.724 38.4533 178.681 38.2329 178.599 38.1368C178.514 38.0435 178.322 37.9954 178.014 37.9954V37.8965H180.578V37.9954C180.307 37.9954 180.114 38.0378 180.004 38.1226C179.894 38.2074 179.837 38.4109 179.837 38.7304V44.0389C179.837 45.1498 180.097 45.9441 180.618 46.419C181.138 46.8938 181.728 47.1313 182.393 47.1313C183.436 47.1313 184.363 46.662 185.171 45.7208V39.1798C185.171 38.606 185.12 38.2668 185.022 38.1594C184.923 38.052 184.764 37.9983 184.549 37.9983H184.456V37.8993H187.003V37.9983C186.689 38.0152 186.491 38.0689 186.409 38.1566C186.327 38.2442 186.288 38.4109 186.288 38.654V46.5235C186.288 46.8345 186.302 47.038 186.333 47.1341C186.364 47.2302 186.426 47.3094 186.52 47.3744C186.613 47.4366 186.774 47.4705 187.003 47.4705V47.5609H187.006Z" fill="white"/>
<path d="M199.067 37.8965H200.594V37.9954C200.079 38.0209 199.819 38.2894 199.819 38.8039C199.819 38.9141 199.833 39.0639 199.859 39.2561L200.876 46.5772C200.939 46.9419 201.006 47.1765 201.083 47.2783C201.159 47.38 201.317 47.4422 201.558 47.4648V47.5638H199.387V47.4648C199.675 47.4733 199.822 47.3348 199.822 47.0465C199.822 46.9815 199.808 46.8543 199.782 46.662L198.79 39.5642L195.325 47.5638H195.26L191.774 39.5784L190.794 46.7158C190.777 46.826 190.768 46.9475 190.768 47.086C190.768 47.3376 190.915 47.4648 191.212 47.4648V47.5638H189.736V47.4648C189.96 47.4648 190.104 47.4366 190.166 47.3828C190.228 47.3291 190.279 47.2415 190.313 47.12C190.347 46.9984 190.375 46.8656 190.392 46.7158L191.497 38.9084C191.316 38.476 191.138 38.2159 190.957 38.1283C190.777 38.0406 190.604 37.9983 190.437 37.9983V37.8993H192.261L195.658 45.8056L199.067 37.8965Z" fill="white"/>
<path d="M251.658 42.3428H206.391V42.8968H251.658V42.3428Z" fill="white"/>
<path d="M115.423 42.3428H70.1562V42.8968H115.423V42.3428Z" fill="white"/>
</svg>
